<svg data-v-423bf9ae="" xmlns="http://www.w3.org/2000/svg" viewBox="0 0 328.08459696727857 60" class="font"><!----><!----><!----><g data-v-423bf9ae="" id="13d1da78-5f50-49ee-9d6b-27cc702ca7c5" fill="black" transform="matrix(6.129289627075195,0,0,6.129289627075195,-0.6225050091743469,-27.031124114990234)"><path d="M2.60 14.14L2.60 14.14Q2.52 14.14 2.46 14.08L2.46 14.08L2.46 14.08Q2.39 14.01 2.35 13.93L2.35 13.93L0.69 8.65L0.24 8.65L0.24 8.65Q0.10 8.65 0.10 8.51L0.10 8.51L0.10 8.51Q0.10 8.36 0.27 8.36L0.27 8.36L2.35 8.36L2.35 8.36Q2.49 8.36 2.49 8.51L2.49 8.51L2.49 8.51Q2.49 8.65 2.35 8.65L2.35 8.65L1.64 8.65L2.94 13.01L2.94 13.01Q2.97 13.08 3.01 13.08L3.01 13.08L3.01 13.08Q3.05 13.08 3.07 13.01L3.07 13.01L4.06 9.42L4.06 9.42Q4.07 9.37 4.07 9.27L4.07 9.27L4.07 9.27Q4.07 9.03 3.93 8.84L3.93 8.84L3.93 8.84Q3.78 8.65 3.60 8.65L3.60 8.65L3.40 8.65L3.40 8.65Q3.26 8.65 3.26 8.51L3.26 8.51L3.26 8.51Q3.26 8.36 3.43 8.36L3.43 8.36L5.54 8.36L5.54 8.36Q5.68 8.36 5.68 8.51L5.68 8.51L5.68 8.51Q5.68 8.65 5.54 8.65L5.54 8.65L5.03 8.65L6.31 13.01L6.31 13.01Q6.34 13.08 6.39 13.08L6.39 13.08L6.39 13.08Q6.44 13.08 6.47 13.01L6.47 13.01L7.41 9.42L7.41 9.42Q7.42 9.37 7.42 9.27L7.42 9.27L7.42 9.27Q7.42 9.03 7.29 8.84L7.29 8.84L7.29 8.84Q7.15 8.65 6.96 8.65L6.96 8.65L6.61 8.65L6.61 8.65Q6.47 8.65 6.47 8.51L6.47 8.51L6.47 8.51Q6.47 8.36 6.61 8.36L6.61 8.36L8.39 8.36L8.39 8.36Q8.53 8.36 8.53 8.51L8.53 8.51L8.53 8.51Q8.53 8.65 8.39 8.65L8.39 8.65L8.30 8.65L8.30 8.65Q7.97 8.65 7.83 9.02L7.83 9.02L6.41 13.93L6.41 13.93Q6.38 14.03 6.31 14.08L6.31 14.08L6.31 14.08Q6.24 14.14 6.17 14.14L6.17 14.14L5.99 14.14L5.99 14.14Q5.81 14.14 5.77 13.93L5.77 13.93L4.34 9.46L3.00 13.93L3.00 13.93Q2.95 14.14 2.80 14.14L2.80 14.14L2.60 14.14ZM10.79 14.20L10.79 14.20Q10.00 14.20 9.58 13.75L9.58 13.75L9.58 13.75Q9.17 13.30 9.17 12.67L9.17 12.67L9.17 12.67Q9.17 12.00 9.65 11.56L9.65 11.56L9.65 11.56Q10.14 11.13 10.88 10.93L10.88 10.93L10.88 10.93Q11.59 10.71 12.40 10.71L12.40 10.71L12.60 10.72L12.60 10.46L12.60 10.46Q12.60 9.88 12.53 9.49L12.53 9.49L12.53 9.49Q12.46 9.10 12.18 8.83L12.18 8.83L12.18 8.83Q11.90 8.55 11.33 8.55L11.33 8.55L11.33 8.55Q10.91 8.55 10.78 8.67L10.78 8.67L10.78 8.67Q10.65 8.78 10.65 8.90L10.65 8.90L10.65 8.90Q10.65 8.97 10.72 9.13L10.72 9.13L10.72 9.13Q10.79 9.28 10.79 9.35L10.79 9.35L10.79 9.35Q10.79 9.66 10.63 9.81L10.63 9.81L10.63 9.81Q10.47 10.00 10.19 10.00L10.19 10.00L10.19 10.00Q9.94 10.00 9.74 9.80L9.74 9.80L9.74 9.80Q9.65 9.69 9.60 9.59L9.60 9.59L9.60 9.59Q9.56 9.49 9.56 9.37L9.56 9.37L9.56 9.37Q9.56 9.10 9.74 8.88L9.74 8.88L9.74 8.88Q10.04 8.54 10.52 8.43L10.52 8.43L10.52 8.43Q11.00 8.32 11.44 8.32L11.44 8.32L11.44 8.32Q12.11 8.32 12.56 8.47L12.56 8.47L12.56 8.47Q13.01 8.62 13.27 8.96L13.27 8.96L13.27 8.96Q13.50 9.25 13.55 9.59L13.55 9.59L13.55 9.59Q13.59 9.93 13.59 10.72L13.59 10.72L13.59 12.89L13.59 12.89Q13.59 13.66 14 13.66L14 13.66L14 13.66Q14.22 13.66 14.45 13.44L14.45 13.44L14.45 13.44Q14.48 13.43 14.49 13.41L14.49 13.41L14.49 13.41Q14.50 13.38 14.53 13.38L14.53 13.38L14.53 13.38Q14.62 13.38 14.62 13.48L14.62 13.48L14.62 13.48Q14.62 13.68 14.30 13.91L14.30 13.91L14.30 13.91Q13.99 14.14 13.69 14.14L13.69 14.14L13.69 14.14Q13.33 14.14 13.05 13.87L13.05 13.87L13.05 13.87Q12.78 13.59 12.64 13.19L12.64 13.19L12.64 13.19Q12.60 13.19 12.58 13.17L12.58 13.17L12.58 13.17Q12.56 13.16 12.54 13.19L12.54 13.19L12.54 13.19Q11.94 14.20 10.79 14.20L10.79 14.20ZM11.20 13.71L11.20 13.71Q11.58 13.71 11.90 13.51L11.90 13.51L11.90 13.51Q12.22 13.31 12.41 13.03L12.41 13.03L12.41 13.03Q12.60 12.75 12.60 12.52L12.60 12.52L12.60 10.99L12.60 10.99Q12.19 10.99 11.73 11.05L11.73 11.05L11.73 11.05Q11.27 11.12 10.96 11.27L10.96 11.27L10.96 11.27Q10.49 11.51 10.34 11.91L10.34 11.91L10.34 11.91Q10.19 12.31 10.19 12.63L10.19 12.63L10.19 12.63Q10.19 12.99 10.42 13.35L10.42 13.35L10.42 13.35Q10.64 13.71 11.20 13.71L11.20 13.71ZM15.57 14.01L15.57 14.01Q15.47 14.01 15.47 13.85L15.47 13.85L15.47 13.85Q15.47 13.78 15.50 13.76L15.50 13.76L15.50 13.76Q15.53 13.73 15.61 13.73L15.61 13.73L16.02 13.73L16.02 13.73Q16.14 13.73 16.20 13.64L16.20 13.64L16.20 13.64Q16.25 13.55 16.25 13.41L16.25 13.41L16.25 5.07L16.25 5.07Q16.25 4.90 16.18 4.81L16.18 4.81L16.18 4.81Q16.11 4.72 16.02 4.72L16.02 4.72L15.47 4.72L15.47 4.72Q15.30 4.72 15.30 4.56L15.30 4.56L15.30 4.56Q15.30 4.48 15.34 4.45L15.34 4.45L15.34 4.45Q15.39 4.41 15.48 4.41L15.48 4.41L17.07 4.41L17.07 4.41Q17.28 4.41 17.28 4.62L17.28 4.62L17.28 13.51L17.28 13.51Q17.28 13.64 17.32 13.67L17.32 13.67L17.32 13.67Q17.36 13.71 17.46 13.71L17.46 13.71L17.92 13.71L17.92 13.71Q18.06 13.71 18.06 13.85L18.06 13.85L18.06 13.85Q18.06 14.01 17.92 14.01L17.92 14.01L15.57 14.01ZM20.48 6.41L20.48 6.41Q20.22 6.41 20.03 6.22L20.03 6.22L20.03 6.22Q19.84 6.02 19.84 5.75L19.84 5.75L19.84 5.75Q19.84 5.49 20.03 5.29L20.03 5.29L20.03 5.29Q20.22 5.08 20.48 5.08L20.48 5.08L20.48 5.08Q20.75 5.08 20.96 5.29L20.96 5.29L20.96 5.29Q21.17 5.50 21.17 5.75L21.17 5.75L21.17 5.75Q21.17 6.02 20.97 6.22L20.97 6.22L20.97 6.22Q20.76 6.41 20.48 6.41L20.48 6.41ZM19.31 14.01L19.31 14.01Q19.25 14.01 19.23 13.97L19.23 13.97L19.23 13.97Q19.21 13.93 19.21 13.85L19.21 13.85L19.21 13.85Q19.21 13.78 19.24 13.76L19.24 13.76L19.24 13.76Q19.26 13.73 19.35 13.73L19.35 13.73L19.74 13.73L19.74 13.73Q19.87 13.73 19.93 13.64L19.93 13.64L19.93 13.64Q19.99 13.54 19.99 13.41L19.99 13.41L19.99 9.00L19.99 9.00Q19.99 8.69 19.74 8.69L19.74 8.69L19.21 8.69L19.21 8.69Q19.04 8.69 19.04 8.54L19.04 8.54L19.04 8.54Q19.04 8.36 19.22 8.36L19.22 8.36L20.80 8.36L20.80 8.36Q21.01 8.36 21.01 8.58L21.01 8.58L21.01 13.51L21.01 13.51Q21.01 13.64 21.06 13.67L21.06 13.67L21.06 13.67Q21.10 13.71 21.20 13.71L21.20 13.71L21.66 13.71L21.66 13.71Q21.80 13.71 21.80 13.85L21.80 13.85L21.80 13.85Q21.80 14.01 21.66 14.01L21.66 14.01L19.31 14.01ZM23.03 14.01L23.03 14.01Q22.92 14.01 22.84 13.95L22.84 13.95L22.84 13.95Q22.76 13.89 22.76 13.80L22.76 13.80L22.76 13.80Q22.76 13.75 22.81 13.69L22.81 13.69L25.90 8.83L25.90 8.83Q25.97 8.74 25.97 8.69L25.97 8.69L25.97 8.69Q25.97 8.60 25.83 8.60L25.83 8.60L25.48 8.60L25.48 8.60Q24.61 8.60 24.32 8.68L24.32 8.68L24.32 8.68Q23.93 8.76 23.74 8.99L23.74 8.99L23.74 8.99Q23.55 9.21 23.39 9.65L23.39 9.65L23.39 9.65Q23.30 9.86 23.18 9.86L23.18 9.86L23.18 9.86Q23.11 9.86 23.10 9.81L23.10 9.81L23.10 9.81Q23.09 9.77 23.09 9.65L23.09 9.65L23.09 8.58L23.09 8.58Q23.09 8.46 23.15 8.41L23.15 8.41L23.15 8.41Q23.21 8.36 23.35 8.36L23.35 8.36L27.08 8.36L27.08 8.36Q27.16 8.36 27.19 8.41L27.19 8.41L27.19 8.41Q27.22 8.47 27.16 8.54L27.16 8.54L23.95 13.65L23.94 13.71L23.94 13.71Q23.94 13.73 24.07 13.73L24.07 13.73L25.62 13.73L25.62 13.73Q26.21 13.73 26.49 13.38L26.49 13.38L26.49 13.38Q26.77 13.03 26.86 12.77L26.86 12.77L26.86 12.77Q26.95 12.50 26.98 12.45L26.98 12.45L26.98 12.45Q27.01 12.38 27.03 12.36L27.03 12.36L27.03 12.36Q27.06 12.35 27.12 12.35L27.12 12.35L27.12 12.35Q27.20 12.35 27.24 12.38L27.24 12.38L27.24 12.38Q27.29 12.42 27.29 12.52L27.29 12.52L27.23 13.87L27.23 13.87Q27.23 14.01 27.08 14.01L27.08 14.01L23.03 14.01ZM28.50 14.01L28.50 14.01Q28.41 14.01 28.41 13.87L28.41 13.87L28.41 13.87Q28.41 13.79 28.43 13.76L28.43 13.76L28.43 13.76Q28.46 13.73 28.55 13.73L28.55 13.73L28.94 13.73L28.94 13.73Q29.06 13.73 29.13 13.64L29.13 13.64L29.13 13.64Q29.19 13.54 29.19 13.41L29.19 13.41L29.19 5.07L29.19 5.07Q29.19 4.90 29.12 4.81L29.12 4.81L29.12 4.81Q29.05 4.72 28.94 4.72L28.94 4.72L28.41 4.72L28.41 4.72Q28.24 4.72 28.24 4.58L28.24 4.58L28.24 4.58Q28.24 4.51 28.29 4.46L28.29 4.46L28.29 4.46Q28.34 4.41 28.42 4.41L28.42 4.41L30.00 4.41L30.00 4.41Q30.21 4.41 30.21 4.62L30.21 4.62L30.21 11.23L30.21 11.23Q30.79 10.74 31.57 9.93L31.57 9.93L31.57 9.93Q32.35 9.13 32.35 8.90L32.35 8.90L32.35 8.90Q32.35 8.75 32.12 8.69L32.12 8.69L32.12 8.69Q31.88 8.62 31.85 8.61L31.85 8.61L31.85 8.61Q31.82 8.61 31.77 8.60L31.77 8.60L31.77 8.60Q31.71 8.60 31.71 8.54L31.71 8.54L31.71 8.54Q31.71 8.40 31.89 8.40L31.89 8.40L33.96 8.40L33.96 8.40Q34.06 8.40 34.10 8.42L34.10 8.42L34.10 8.42Q34.13 8.44 34.13 8.51L34.13 8.51L34.13 8.51Q34.13 8.57 34.09 8.59L34.09 8.59L34.09 8.59Q34.05 8.61 33.96 8.64L33.96 8.64L33.96 8.64Q33.45 8.78 33.19 8.88L33.19 8.88L33.19 8.88Q32.94 8.97 32.73 9.17L32.73 9.17L31.53 10.28L33.92 13.48L33.92 13.48Q34.08 13.71 34.41 13.71L34.41 13.71L34.59 13.71L34.59 13.71Q34.73 13.71 34.73 13.85L34.73 13.85L34.73 13.85Q34.73 14.01 34.59 14.01L34.59 14.01L32.21 14.01L32.21 14.01Q32.12 14.01 32.12 13.87L32.12 13.87L32.12 13.87Q32.12 13.71 32.24 13.71L32.24 13.71L32.51 13.71L32.51 13.71Q32.61 13.71 32.66 13.65L32.66 13.65L32.66 13.65Q32.70 13.59 32.70 13.52L32.70 13.52L32.70 13.52Q32.70 13.45 32.66 13.41L32.66 13.41L30.80 10.98L30.80 10.98Q30.59 11.17 30.45 11.31L30.45 11.31L30.45 11.31Q30.31 11.45 30.21 11.54L30.21 11.54L30.21 13.51L30.21 13.51Q30.21 13.64 30.25 13.67L30.25 13.67L30.25 13.67Q30.30 13.71 30.39 13.71L30.39 13.71L30.86 13.71L30.86 13.71Q31.00 13.71 31.00 13.85L31.00 13.85L31.00 13.85Q31.00 14.01 30.86 14.01L30.86 14.01L28.50 14.01ZM36.90 14.20L36.90 14.20Q36.11 14.20 35.69 13.75L35.69 13.75L35.69 13.75Q35.28 13.30 35.28 12.67L35.28 12.67L35.28 12.67Q35.28 12.00 35.76 11.56L35.76 11.56L35.76 11.56Q36.25 11.13 36.99 10.93L36.99 10.93L36.99 10.93Q37.70 10.71 38.51 10.71L38.51 10.71L38.71 10.72L38.71 10.46L38.71 10.46Q38.71 9.88 38.64 9.49L38.64 9.49L38.64 9.49Q38.57 9.10 38.29 8.83L38.29 8.83L38.29 8.83Q38.01 8.55 37.44 8.55L37.44 8.55L37.44 8.55Q37.02 8.55 36.89 8.67L36.89 8.67L36.89 8.67Q36.76 8.78 36.76 8.90L36.76 8.90L36.76 8.90Q36.76 8.97 36.83 9.13L36.83 9.13L36.83 9.13Q36.90 9.28 36.90 9.35L36.90 9.35L36.90 9.35Q36.90 9.66 36.74 9.81L36.74 9.81L36.74 9.81Q36.58 10.00 36.30 10.00L36.30 10.00L36.30 10.00Q36.05 10.00 35.85 9.80L35.85 9.80L35.85 9.80Q35.76 9.69 35.71 9.59L35.71 9.59L35.71 9.59Q35.67 9.49 35.67 9.37L35.67 9.37L35.67 9.37Q35.67 9.10 35.85 8.88L35.85 8.88L35.85 8.88Q36.15 8.54 36.63 8.43L36.63 8.43L36.63 8.43Q37.11 8.32 37.55 8.32L37.55 8.32L37.55 8.32Q38.22 8.32 38.67 8.47L38.67 8.47L38.67 8.47Q39.12 8.62 39.38 8.96L39.38 8.96L39.38 8.96Q39.61 9.25 39.66 9.59L39.66 9.59L39.66 9.59Q39.70 9.93 39.70 10.72L39.70 10.72L39.70 12.89L39.70 12.89Q39.70 13.66 40.11 13.66L40.11 13.66L40.11 13.66Q40.33 13.66 40.56 13.44L40.56 13.44L40.56 13.44Q40.59 13.43 40.60 13.41L40.60 13.41L40.60 13.41Q40.61 13.38 40.64 13.38L40.64 13.38L40.64 13.38Q40.73 13.38 40.73 13.48L40.73 13.48L40.73 13.48Q40.73 13.68 40.41 13.91L40.41 13.91L40.41 13.91Q40.10 14.14 39.80 14.14L39.80 14.14L39.80 14.14Q39.44 14.14 39.16 13.87L39.16 13.87L39.16 13.87Q38.89 13.59 38.75 13.19L38.75 13.19L38.75 13.19Q38.71 13.19 38.69 13.17L38.69 13.17L38.69 13.17Q38.67 13.16 38.65 13.19L38.65 13.19L38.65 13.19Q38.05 14.20 36.90 14.20L36.90 14.20ZM37.31 13.71L37.31 13.71Q37.69 13.71 38.01 13.51L38.01 13.51L38.01 13.51Q38.33 13.31 38.52 13.03L38.52 13.03L38.52 13.03Q38.71 12.75 38.71 12.52L38.71 12.52L38.71 10.99L38.71 10.99Q38.30 10.99 37.84 11.05L37.84 11.05L37.84 11.05Q37.38 11.12 37.07 11.27L37.07 11.27L37.07 11.27Q36.60 11.51 36.45 11.91L36.45 11.91L36.45 11.91Q36.30 12.31 36.30 12.63L36.30 12.63L36.30 12.63Q36.30 12.99 36.53 13.35L36.53 13.35L36.53 13.35Q36.75 13.71 37.31 13.71L37.31 13.71ZM42.17 14.11L42.17 14.11Q41.90 14.11 41.71 13.92L41.71 13.92L41.71 13.92Q41.51 13.73 41.51 13.47L41.51 13.47L41.51 13.47Q41.51 13.20 41.71 13.00L41.71 13.00L41.71 13.00Q41.90 12.80 42.17 12.80L42.17 12.80L42.17 12.80Q42.43 12.80 42.64 13.01L42.64 13.01L42.64 13.01Q42.85 13.22 42.85 13.47L42.85 13.47L42.85 13.47Q42.85 13.73 42.65 13.92L42.65 13.92L42.65 13.92Q42.45 14.11 42.17 14.11L42.17 14.11ZM45.82 14.14L45.82 14.14Q45.39 14.14 44.98 13.93L44.98 13.93L44.98 13.93Q44.56 13.72 44.56 13.10L44.56 13.10L44.56 8.72L43.79 8.72L43.79 8.72Q43.74 8.72 43.70 8.68L43.70 8.68L43.70 8.68Q43.67 8.64 43.67 8.58L43.67 8.58L43.67 8.58Q43.67 8.47 43.78 8.47L43.78 8.47L43.78 8.47Q44.35 8.33 44.73 7.85L44.73 7.85L44.73 7.85Q45.11 7.36 45.11 6.38L45.11 6.38L45.11 6.38Q45.11 6.31 45.16 6.26L45.16 6.26L45.16 6.26Q45.21 6.20 45.28 6.20L45.28 6.20L45.40 6.20L45.40 6.20Q45.47 6.20 45.51 6.26L45.51 6.26L45.51 6.26Q45.56 6.31 45.56 6.38L45.56 6.38L45.56 8.36L47.17 8.36L47.17 8.36Q47.26 8.36 47.26 8.50L47.26 8.50L47.26 8.58L47.26 8.58Q47.26 8.72 47.17 8.72L47.17 8.72L45.56 8.72L45.56 12.74L45.56 12.74Q45.56 13.26 45.77 13.43L45.77 13.43L45.77 13.43Q45.99 13.59 46.31 13.59L46.31 13.59L46.31 13.59Q46.83 13.59 47.25 12.94L47.25 12.94L47.25 12.94Q47.32 12.81 47.36 12.81L47.36 12.81L47.36 12.81Q47.54 12.81 47.54 12.96L47.54 12.96L47.54 12.96Q47.54 13.03 47.50 13.10L47.50 13.10L47.50 13.10Q47.17 13.73 46.73 13.94L46.73 13.94L46.73 13.94Q46.30 14.14 45.82 14.14L45.82 14.14ZM50.67 14.14L50.67 14.14Q50.57 14.14 50.49 14.08L50.49 14.08L50.49 14.08Q50.41 14.03 50.39 13.93L50.39 13.93L48.31 8.65L47.96 8.65L47.96 8.65Q47.82 8.65 47.82 8.51L47.82 8.51L47.82 8.51Q47.82 8.36 47.96 8.36L47.96 8.36L50.06 8.36L50.06 8.36Q50.22 8.36 50.22 8.51L50.22 8.51L50.22 8.51Q50.22 8.65 50.08 8.65L50.08 8.65L49.45 8.65L51.06 13.01L51.06 13.01Q51.10 13.08 51.17 13.08L51.17 13.08L51.17 13.08Q51.25 13.08 51.25 13.01L51.25 13.01L52.42 9.42L52.42 9.42Q52.43 9.37 52.43 9.24L52.43 9.24L52.43 9.24Q52.43 9.02 52.27 8.83L52.27 8.83L52.27 8.83Q52.11 8.65 51.87 8.65L51.87 8.65L51.73 8.65L51.73 8.65Q51.58 8.65 51.58 8.51L51.58 8.51L51.58 8.51Q51.58 8.36 51.73 8.36L51.73 8.36L53.51 8.36L53.51 8.36Q53.63 8.36 53.63 8.51L53.63 8.51L53.63 8.51Q53.63 8.65 53.51 8.65L53.51 8.65L53.51 8.65Q53.30 8.65 53.15 8.76L53.15 8.76L53.15 8.76Q53.00 8.86 52.96 9.02L52.96 9.02L51.17 13.93L51.17 13.93Q51.14 14.03 51.06 14.08L51.06 14.08L51.06 14.08Q50.97 14.14 50.88 14.14L50.88 14.14L50.67 14.14Z"></path></g><!----><!----></svg>